<?xml version="1.0" standalone="no"?><!DOCTYPE svg PUBLIC "-//W3C//DTD SVG 20010904//EN"
    "http://www.w3.org/TR/2001/REC-SVG-20010904/DTD/svg10.dtd">
<svg height="750.000000pt" preserveAspectRatio="xMidYMid meet" version="1.0"
    viewBox="0 0 500.000000 750.000000" width="500.000000pt" xmlns="http://www.w3.org/2000/svg">

    <g fill="#000000" stroke="none"
        transform="translate(0.000000,750.000000) scale(0.100000,-0.100000)">
        <path d="M220 7225 c0 -19 117 -462 130 -492 9 -21 13 -22 183 -21 96 0 190 3
208 7 33 7 34 8 61 110 15 57 30 106 33 109 3 3 5 -47 5 -111 l0 -117 88 0
c60 0 94 5 107 14 17 12 23 12 50 -7 26 -19 44 -22 130 -22 88 0 107 3 153 26
48 24 52 24 52 7 0 -16 9 -18 84 -18 103 0 100 -3 105 103 1 25 5 28 29 25 25
-3 27 -6 32 -63 l5 -60 85 0 85 0 0 195 0 195 -85 0 -85 0 -3 -67 -3 -68 -34
0 -35 0 0 70 0 70 -90 0 c-90 0 -90 0 -90 -26 l0 -25 -32 24 c-46 34 -91 47
-165 47 -72 0 -129 -20 -152 -52 l-15 -22 -6 24 c-6 24 -10 25 -87 28 -76 3
-82 4 -85 25 -3 21 -7 22 -123 24 -152 2 -282 10 -295 18 -6 4 -49 20 -97 36
-98 33 -143 37 -143 14z m1198 -288 l3 -59 -33 25 c-18 14 -56 36 -85 51 -80
40 -76 47 24 44 l88 -3 3 -58z m-327 -19 c16 -12 53 -32 82 -43 34 -14 53 -28
55 -41 3 -18 2 -18 -12 -1 -12 15 -27 18 -88 16 l-73 -2 -3 46 c-2 26 0 47 3
47 3 0 19 -10 36 -22z" />
        <path d="M4612 7180 c-42 -10 -78 -25 -86 -35 -9 -13 -15 -15 -20 -7 -8 13
-137 15 -191 3 -27 -6 -30 -10 -35 -55 -5 -45 -6 -48 -19 -32 -8 10 -36 28
-63 42 -37 19 -62 24 -120 24 -146 -1 -251 -72 -265 -179 l-6 -41 -93 0 c-84
0 -93 -2 -99 -20 -15 -46 -65 -12 -65 44 0 44 32 56 152 56 60 0 108 3 108 8
0 4 -11 24 -25 44 -32 47 -113 88 -176 88 -128 0 -210 -47 -255 -145 -18 -40
-23 -45 -23 -25 -1 32 -38 91 -76 122 -86 71 -241 60 -324 -23 -42 -42 -61
-90 -61 -156 0 -54 3 -62 46 -115 44 -57 47 -58 95 -58 l49 0 0 34 c0 32 2 34
41 38 22 2 42 2 45 -1 2 -2 4 -19 4 -38 l0 -33 95 0 95 0 0 72 0 71 23 -44
c51 -97 152 -131 352 -120 l110 6 3 59 3 59 19 -30 c28 -47 96 -82 178 -92 91
-12 150 1 207 45 45 34 45 34 45 10 0 -14 4 -28 10 -31 13 -8 459 -17 482 -9
17 5 18 25 18 245 l0 239 -52 -1 c-29 -1 -86 -9 -126 -19z m-1491 -210 c12 -7
19 -21 19 -40 0 -28 -2 -30 -40 -30 -34 0 -40 3 -40 22 0 18 25 58 37 58 2 0
13 -5 24 -10z m979 -50 c0 -10 -9 -28 -20 -41 -20 -24 -20 -24 -35 -5 -20 26
-19 60 1 81 15 15 18 15 35 -1 11 -9 19 -25 19 -34z" />
        <path d="M2523 7122 l-33 -3 0 -205 0 -205 68 3 c66 3 67 4 70 32 3 27 6 28
42 23 23 -3 51 -17 72 -35 66 -61 84 -74 128 -100 39 -23 56 -27 127 -27 65 0
86 4 100 18 16 16 15 17 -34 17 -62 0 -94 23 -153 110 -21 31 -55 71 -75 89
l-37 32 27 29 c37 39 43 95 16 148 -12 23 -31 47 -44 54 -22 13 -209 26 -274
20z m179 -115 c23 -37 -3 -81 -44 -75 -18 2 -24 10 -26 36 -5 52 4 65 35 57
16 -4 31 -12 35 -18z" />
        <path d="M2066 7105 c-3 -9 -6 -102 -6 -207 l0 -190 123 3 c143 5 184 20 232
88 26 37 30 51 30 110 0 57 -4 74 -28 109 -15 23 -46 54 -69 69 -38 26 -51 28
-158 32 -103 3 -118 1 -124 -14z m219 -145 c37 -40 15 -100 -36 -100 -29 0
-29 1 -29 60 0 56 1 60 23 60 13 0 32 -9 42 -20z" />
        <path d="M2530 6311 c16 -31 12 -39 -22 -46 -34 -6 -38 -8 -123 -46 -27 -13
-68 -28 -90 -34 l-39 -11 31 -13 32 -13 -36 -50 c-23 -34 -30 -49 -18 -45 14
6 15 3 8 -26 -15 -58 -7 -142 17 -185 16 -28 21 -51 18 -76 -2 -22 0 -35 6
-33 6 2 12 28 13 57 1 44 6 58 31 83 26 25 39 30 91 33 38 2 60 0 56 -6 -3 -6
-1 -10 4 -10 6 0 11 7 11 15 0 9 9 15 24 15 12 0 38 5 55 11 23 8 36 8 43 1 6
-6 23 -9 37 -6 15 3 52 -4 84 -16 64 -24 77 -42 77 -113 0 -78 22 -116 36 -62
4 15 1 32 -6 40 -12 15 -12 28 7 188 4 38 8 47 20 43 11 -5 13 -2 8 11 -3 10
-13 45 -20 78 -12 50 -21 66 -57 97 -24 21 -49 38 -55 38 -7 0 -13 9 -13 20 0
15 -7 20 -25 20 -14 0 -28 7 -31 15 -9 22 -29 18 -47 -7 l-16 -23 -23 27 c-25
29 -58 48 -83 48 -12 0 -14 -4 -5 -19z m190 -352 c0 -3 -11 -4 -25 -1 -24 4
-24 5 -8 17 17 13 32 5 33 -16z" />
        <path d="M2676 5839 c-14 -11 -26 -24 -26 -29 0 -5 11 2 26 16 27 28 63 27 97
-3 9 -9 17 -11 17 -5 0 16 -41 42 -66 42 -12 0 -33 -9 -48 -21z" />
        <path d="M2400 5825 c-7 -9 -10 -18 -6 -22 3 -3 6 -1 6 5 0 5 12 15 28 20 23
9 24 11 6 11 -12 1 -27 -6 -34 -14z" />
        <path d="M2661 5791 c-23 -15 -5 -41 28 -41 33 0 44 10 35 34 -7 17 -41 21
-63 7z" />
        <path d="M2433 5775 c-7 -21 1 -27 32 -27 32 0 37 4 29 26 -8 20 -53 21 -61 1z" />
        <path d="M2719 5603 c-3 -31 -7 -50 -14 -65 -4 -10 -5 -18 -2 -18 5 0 57 77
57 85 0 8 -40 6 -41 -2z" />
        <path d="M2046 5583 c-6 -14 -5 -15 5 -6 7 7 10 15 7 18 -3 3 -9 -2 -12 -12z" />
        <path d="M2443 5572 c-1 -9 10 -26 25 -36 23 -18 25 -18 19 -2 -4 10 -7 22 -7
26 0 5 -8 14 -18 19 -14 7 -18 6 -19 -7z" />
        <path d="M2040 5530 c0 -11 5 -20 10 -20 6 0 10 9 10 20 0 11 -4 20 -10 20 -5
0 -10 -9 -10 -20z" />
        <path d="M1980 5470 c0 -5 7 -10 16 -10 8 0 12 5 9 10 -3 6 -10 10 -16 10 -5
0 -9 -4 -9 -10z" />
        <path d="M2675 5414 c-22 -20 -35 -34 -30 -33 6 1 22 -4 38 -11 15 -7 30 -11
33 -7 10 10 17 87 8 87 -5 -1 -27 -17 -49 -36z" />
        <path d="M3308 5283 c7 -3 16 -2 19 1 4 3 -2 6 -13 5 -11 0 -14 -3 -6 -6z" />
        <path d="M3447 5174 c4 -67 8 -74 31 -51 15 16 15 19 2 27 -8 5 -15 24 -15 41
0 18 -5 34 -11 36 -7 2 -10 -16 -7 -53z" />
        <path d="M3401 5131 c-8 -5 -12 -18 -8 -30 3 -11 1 -36 -3 -56 -10 -44 1 -38
25 15 20 45 12 87 -14 71z" />
        <path d="M3334 5115 c-19 -14 -18 -14 4 -15 13 0 22 6 22 15 0 19 -1 19 -26 0z" />
        <path d="M3321 5068 c0 -7 4 -22 9 -33 7 -17 9 -15 9 13 1 17 -3 32 -9 32 -5
0 -10 -6 -9 -12z" />
        <path d="M3245 5030 c-29 -6 -29 -6 -6 -14 14 -5 27 -4 34 3 15 15 7 18 -28
11z" />
        <path d="M3452 5010 c-17 -28 -15 -32 8 -13 20 18 26 33 12 33 -4 0 -13 -9
-20 -20z" />
        <path d="M3360 4989 c0 -5 5 -7 10 -4 6 3 10 8 10 11 0 2 -4 4 -10 4 -5 0 -10
-5 -10 -11z" />
        <path d="M3286 4959 c-19 -19 -19 -19 2 -19 15 0 22 6 22 20 0 24 0 24 -24 -1z" />
        <path d="M1651 4779 c-29 -32 -26 -67 11 -124 52 -78 143 -139 358 -238 103
-48 157 -88 171 -126 13 -32 -6 -52 -84 -85 -43 -18 -67 -35 -79 -56 -19 -33
-38 -39 -38 -12 0 10 -6 26 -13 37 -7 11 -24 45 -36 75 -24 55 -70 124 -78
116 -3 -2 4 -17 14 -32 21 -32 44 -92 45 -114 0 -8 9 -35 20 -60 11 -25 22
-62 24 -84 5 -51 9 -54 25 -16 8 16 19 28 26 26 6 -3 24 15 40 39 15 24 44 53
65 65 35 19 37 20 47 3 10 -19 26 -11 26 14 0 9 8 21 18 27 15 9 21 7 32 -8
16 -22 39 -11 32 15 -5 20 9 25 31 11 8 -5 10 -16 6 -27 -6 -14 -4 -17 9 -12
9 3 17 2 17 -3 0 -12 -62 -52 -160 -102 -65 -34 -62 -42 8 -17 28 11 28 2 0
-22 -11 -11 -18 -19 -14 -19 4 0 -5 -11 -21 -24 -16 -13 -34 -35 -42 -48 -7
-14 -26 -33 -42 -42 -38 -22 -56 -9 -62 42 l-4 37 -1 -39 c-2 -33 -4 -37 -17
-26 -13 10 -15 9 -15 -8 0 -22 24 -52 41 -52 13 0 40 -27 37 -37 -2 -10 11
-139 18 -170 9 -44 31 -25 43 37 7 33 16 58 22 55 5 -4 9 2 9 13 0 31 21 82
32 79 6 -1 16 17 22 39 19 74 85 134 149 137 18 1 32 10 40 26 7 14 18 26 26
29 11 4 12 -6 7 -49 -21 -172 -37 -543 -22 -528 2 2 9 72 16 154 13 170 35
305 57 352 13 28 18 31 34 22 28 -14 23 -67 -16 -199 -27 -91 -46 -350 -25
-350 6 0 10 26 10 59 0 32 3 87 7 122 l8 64 6 -45 c5 -36 6 -31 6 30 0 66 18
168 28 158 2 -2 0 -48 -5 -103 -5 -55 -9 -120 -8 -145 l1 -45 8 35 c6 25 6 17
2 -25 -3 -33 -6 -74 -7 -92 -1 -17 -4 -35 -8 -38 -7 -7 0 -168 8 -194 6 -19
43 20 47 51 2 13 10 23 18 23 8 0 18 9 23 20 8 18 9 17 18 -13 7 -27 5 -38
-12 -59 -11 -14 -20 -35 -19 -47 0 -16 4 -13 17 14 9 19 22 41 29 47 6 7 10
21 9 30 -2 10 -1 12 1 6 6 -18 28 -16 44 3 10 13 24 15 63 10 39 -4 54 -1 76
14 16 11 33 20 39 20 6 0 11 5 11 11 0 6 6 9 13 6 6 -2 25 7 40 22 26 24 29
24 27 6 -4 -33 0 -41 10 -25 22 34 9 -16 -15 -57 -28 -51 -21 -55 19 -12 19
20 31 27 36 19 5 -8 15 -1 30 20 12 17 24 29 27 26 7 -7 -36 -76 -48 -76 -5 0
-9 -8 -9 -19 0 -10 -7 -25 -17 -32 -9 -8 -31 -36 -49 -64 -44 -69 -81 -102
-96 -87 -7 7 -16 12 -21 12 -14 0 30 -39 84 -75 24 -16 46 -32 49 -36 16 -17
181 -118 212 -129 35 -13 37 -15 22 -32 -29 -31 -113 -53 -212 -54 -51 0 -95
-4 -98 -7 -3 -3 4 -19 17 -36 40 -55 19 -147 -44 -196 -66 -50 -197 -70 -288
-45 -80 22 -169 159 -139 214 13 26 37 28 54 4 33 -45 139 -63 196 -33 26 13
80 73 80 87 0 3 -56 8 -125 9 -98 3 -128 7 -135 19 -9 13 -10 13 -10 0 0 -14
-14 -14 -107 -7 -68 5 -140 4 -193 -2 -47 -6 -145 -14 -217 -17 -73 -4 -133
-11 -133 -15 0 -17 13 -39 24 -39 6 0 16 -10 21 -22 24 -55 140 -56 204 -2 35
29 51 25 51 -14 0 -82 -46 -151 -125 -191 -41 -20 -58 -23 -129 -19 -99 5
-148 27 -184 81 -21 32 -27 53 -27 98 0 50 4 62 29 88 16 17 27 33 25 35 -3 3
-42 8 -87 12 l-82 7 0 -74 c0 -77 -24 -169 -111 -418 -21 -62 -39 -123 -39
-136 0 -31 -18 -43 -80 -55 -30 -6 -54 -11 -55 -13 0 -1 -13 -20 -28 -43 -15
-22 -27 -47 -27 -55 0 -8 -4 -19 -10 -25 -16 -16 -29 -174 -24 -295 7 -175 24
-428 34 -489 10 -66 44 -160 68 -187 9 -11 36 -30 59 -41 23 -12 45 -26 48
-32 4 -7 32 -8 78 -4 41 3 89 1 112 -5 208 -55 276 -71 310 -71 91 0 390 -47
447 -69 12 -5 48 -26 78 -46 30 -19 83 -44 117 -55 62 -19 63 -19 118 0 50 17
132 57 145 70 3 3 21 16 40 30 78 55 188 161 228 222 84 124 152 297 178 455
l16 91 -23 34 c-13 18 -36 45 -51 59 -16 14 -28 29 -28 32 0 17 39 4 69 -24
18 -16 35 -28 38 -25 2 2 6 104 7 225 2 150 6 225 14 233 8 8 13 5 19 -13 12
-34 8 -206 -6 -254 -14 -51 -15 -196 -1 -175 9 13 11 13 20 0 8 -13 10 -12 10
3 0 20 24 49 33 41 6 -6 31 35 32 51 0 6 10 11 23 13 12 2 22 9 22 17 0 7 10
15 23 18 12 2 30 8 40 12 13 5 17 2 17 -14 0 -12 -4 -21 -10 -21 -5 0 -10 -7
-10 -15 0 -8 4 -15 9 -15 8 0 18 27 27 68 4 19 47 52 62 47 6 -2 12 -1 12 3 0
5 16 26 37 48 48 52 93 123 87 138 -3 7 2 19 11 26 8 7 15 23 15 36 0 12 4 34
10 48 5 14 7 32 4 39 -7 19 -54 14 -101 -11 -46 -24 -59 -15 -18 12 14 9 25
24 25 34 0 10 5 23 12 30 9 9 9 12 0 12 -7 0 -12 11 -12 24 0 14 -4 28 -10 31
-15 9 -12 112 4 144 18 33 62 65 81 57 7 -2 16 2 19 10 10 26 26 15 27 -18 1
-33 1 -33 10 7 6 22 7 51 4 64 -4 14 -1 73 6 133 9 79 16 108 26 108 8 0 12 4
9 9 -3 4 17 42 43 83 70 107 99 186 107 291 5 71 10 87 21 83 8 -4 17 -6 19
-6 2 0 4 -53 3 -117 0 -65 3 -131 7 -147 5 -21 4 -27 -5 -22 -6 4 -11 14 -11
23 0 9 -3 13 -7 9 -4 -4 -8 -70 -9 -147 -1 -87 -6 -145 -13 -153 -7 -8 -14
-52 -16 -98 -2 -47 -8 -95 -13 -109 -5 -13 -10 -55 -10 -94 0 -38 -6 -83 -12
-100 -10 -26 -28 -104 -32 -142 -1 -7 -5 -10 -9 -8 -11 7 -19 -22 -19 -71 0
-24 -9 -67 -20 -96 -22 -58 -24 -68 -12 -68 4 0 15 19 24 43 14 34 17 37 17
17 1 -23 -21 -66 -39 -80 -10 -7 -38 -99 -46 -147 -4 -24 -10 -43 -15 -43 -5
0 -9 -14 -9 -31 0 -17 -5 -39 -10 -49 -6 -11 -13 -47 -17 -82 -6 -57 -7 -61
-17 -37 -15 36 -32 17 -38 -40 -4 -41 -4 -42 14 -19 10 13 18 19 18 13 0 -20
-23 -92 -46 -143 -13 -29 -21 -58 -18 -64 4 -6 2 -8 -4 -5 -6 5 -13 -8 -17
-33 -4 -22 -11 -40 -16 -40 -5 0 -9 -15 -9 -34 0 -18 -6 -52 -14 -74 -9 -25
-11 -43 -5 -49 6 -6 4 -20 -6 -39 -8 -16 -15 -40 -15 -53 0 -53 -42 -201 -60
-211 -9 -5 -20 -6 -24 -3 -3 4 -5 -30 -4 -75 1 -45 6 -82 11 -82 4 0 3 -9 -3
-19 -5 -11 -10 -29 -10 -40 0 -12 -4 -21 -10 -21 -5 0 -14 -9 -20 -20 -9 -16
-8 -18 5 -14 19 8 20 -10 1 -26 -8 -6 -13 -17 -10 -24 3 -7 -4 -23 -16 -36
-25 -29 -26 -39 -2 -17 27 25 36 21 15 -7 -10 -13 -22 -21 -28 -18 -5 3 -3 -3
7 -14 9 -11 15 -31 13 -49 -2 -16 1 -32 6 -36 6 -3 4 -17 -6 -35 -8 -16 -15
-38 -15 -50 0 -11 -9 -30 -20 -42 -11 -12 -20 -26 -20 -32 0 -16 18 -12 29 8
6 9 11 13 11 9 0 -5 -10 -23 -22 -40 -12 -17 -23 -38 -24 -46 -1 -9 -5 -24 -9
-33 -7 -17 10 -18 263 -18 210 0 270 3 269 13 -3 25 15 152 24 168 4 9 13 64
19 122 10 102 42 253 60 287 5 9 10 41 11 71 1 30 5 72 10 94 5 22 11 69 13
105 5 75 29 198 56 285 10 33 26 96 35 140 10 44 24 105 32 135 8 30 19 80 25
110 6 30 17 62 24 71 8 8 14 31 14 50 0 19 4 39 10 45 12 12 30 115 37 208 3
46 8 65 14 55 7 -11 9 -9 9 7 0 12 12 47 26 77 14 32 27 82 29 114 8 98 17
153 25 153 4 0 11 42 15 93 3 50 11 139 16 197 20 204 29 707 16 805 -5 33
-10 85 -12 115 -13 226 -35 352 -72 423 -8 16 -12 31 -9 34 6 6 -34 86 -46 91
-5 2 -8 10 -8 18 0 8 -9 22 -20 31 -11 10 -20 24 -20 33 0 18 -43 70 -58 70
-5 0 -13 16 -16 35 -4 19 -11 35 -17 35 -6 0 -7 5 -3 12 4 6 3 9 -2 5 -5 -3
-31 15 -58 39 -27 24 -45 44 -40 44 5 1 -7 9 -26 19 -19 11 -35 23 -35 28 0 4
-3 7 -7 5 -5 -1 -8 2 -8 6 0 5 -19 15 -42 23 -24 7 -48 20 -54 28 -6 8 -28 16
-49 17 -20 2 -43 8 -49 13 -7 6 -31 13 -55 17 -28 5 -41 11 -37 20 3 8 -4 12
-22 12 -15 -1 -38 2 -51 7 -16 5 -27 3 -33 -6 -6 -10 -7 -7 -3 9 5 17 2 22
-12 22 -11 0 -24 5 -30 11 -7 7 -19 9 -29 5 -16 -6 -15 -8 5 -22 12 -9 20 -22
17 -30 -3 -7 3 -19 13 -26 10 -7 26 -35 36 -63 11 -27 36 -82 56 -120 29 -54
39 -87 45 -143 5 -56 10 -72 20 -68 8 3 14 1 14 -4 0 -6 -4 -10 -9 -10 -5 0
-11 -8 -14 -17 -2 -10 -7 0 -11 22 -4 22 -11 47 -17 55 -5 8 -12 22 -15 31 -3
8 -19 23 -35 33 -23 13 -29 23 -25 39 3 12 3 16 0 10 -3 -7 -14 -13 -25 -13
-14 0 -20 10 -26 43 -4 23 -6 45 -5 49 1 3 -5 9 -13 12 -9 3 -15 -1 -15 -9 0
-8 5 -15 10 -15 16 0 11 -26 -9 -51 -15 -19 -22 -21 -32 -12 -16 16 -3 69 14
55 9 -8 12 2 13 39 0 35 -3 49 -13 49 -8 0 -11 -4 -8 -10 3 -5 1 -10 -5 -10
-7 0 -10 7 -7 15 4 8 -5 23 -20 35 -24 19 -25 23 -15 57 9 29 9 39 -1 45 -20
13 -36 9 -53 -11 -10 -11 -24 -16 -36 -13 -17 4 -16 7 13 33 25 23 33 38 37
77 4 44 2 51 -23 70 -15 12 -35 22 -43 22 -15 0 -213 -106 -264 -141 -41 -29
-48 -23 -28 29 25 68 33 105 20 97 -5 -3 -10 -18 -11 -33 0 -25 -1 -25 -10 -7
-8 16 -8 15 -4 -8 4 -18 2 -26 -4 -23 -5 4 -27 -23 -48 -59 -36 -62 -42 -68
-119 -105 -66 -31 -88 -37 -121 -33 -28 4 -61 -2 -102 -16 -79 -27 -139 -27
-256 4 -69 18 -125 42 -207 88 -315 178 -416 228 -473 235 -35 3 -46 0 -64
-19z m1465 -354 c-11 -8 -25 -15 -30 -15 -6 1 0 7 14 15 32 19 40 18 16 0z
m164 -41 c0 -23 -7 -36 -25 -48 -31 -20 -61 -20 -69 0 -5 13 -9 14 -21 4 -8
-6 -23 -9 -36 -5 -20 7 -20 8 10 26 17 10 36 27 42 37 9 15 23 19 56 18 41 -1
43 -2 43 -32z m-220 12 c0 -2 -7 -7 -16 -10 -8 -3 -12 -2 -9 4 6 10 25 14 25
6z m250 -20 c0 -3 -4 -8 -10 -11 -5 -3 -10 -1 -10 4 0 6 5 11 10 11 6 0 10 -2
10 -4z m133 -57 c-3 -10 -9 -19 -14 -19 -11 0 -12 21 -3 45 9 23 23 0 17 -26z
m-513 21 c28 -8 35 -15 37 -36 1 -29 20 -47 42 -39 24 9 81 -15 81 -34 0 -38
-39 -64 -77 -50 -27 10 -30 1 -32 -92 -2 -50 2 -70 14 -83 9 -9 14 -20 10 -26
-3 -6 1 -7 9 -4 9 3 16 10 16 16 0 5 4 7 9 3 5 -3 12 -1 16 5 13 22 36 10 33
-16 -2 -22 -9 -27 -37 -29 -33 -3 -79 -40 -94 -75 -4 -8 -4 3 -2 25 2 22 2 31
-2 20 -3 -11 -8 -22 -12 -25 -4 -3 -13 -30 -20 -60 -7 -30 -21 -63 -30 -74
-14 -16 -12 -16 19 2 34 22 56 21 112 0 23 -8 32 -6 57 13 16 13 30 30 30 37
1 6 8 12 16 12 12 0 13 -4 5 -19 -22 -41 -10 -52 20 -19 21 23 28 27 24 13 -4
-11 -12 -26 -17 -33 -14 -18 0 -27 18 -12 13 11 12 7 -2 -18 -10 -18 -26 -32
-35 -32 -22 0 -35 -39 -17 -52 11 -8 10 -9 -3 -5 -12 4 -20 -4 -30 -35 -7 -23
-19 -44 -26 -46 -11 -3 -12 0 -3 16 6 11 11 30 11 42 0 20 -3 19 -37 -14 -21
-20 -43 -36 -50 -36 -7 0 -13 -5 -13 -11 0 -18 -107 -111 -163 -141 -55 -31
-99 -42 -127 -33 -25 8 -44 58 -34 92 12 44 11 74 -3 129 -11 45 -11 60 6 126
11 41 22 96 26 124 4 27 16 94 26 149 12 60 17 115 13 138 -4 28 -2 42 9 50 8
7 20 30 27 52 26 85 84 112 180 85z m-590 -29 c0 -5 6 -16 14 -23 7 -8 17 -25
21 -38 6 -22 2 -20 -29 13 -20 21 -34 43 -31 48 8 12 25 12 25 0z m971 -14
c-10 -9 -11 -8 -5 6 3 10 9 15 12 12 3 -3 0 -11 -7 -18z m479 -54 c-1 -24 -2
-26 -11 -10 -5 9 -7 22 -4 27 10 17 15 11 15 -17z m-679 -71 c-11 -20 -40 -36
-49 -27 -8 7 19 35 34 35 8 0 14 5 14 12 0 6 3 9 6 6 3 -4 1 -15 -5 -26z m231
5 c-12 -13 -22 -26 -22 -30 0 -4 -9 -16 -20 -27 -11 -11 -20 -26 -20 -32 0 -7
21 8 46 35 38 40 48 45 65 37 11 -6 19 -21 19 -35 0 -20 5 -25 24 -25 26 0 51
-23 42 -39 -14 -22 19 -23 37 0 19 24 20 24 13 2 -9 -29 1 -29 31 -1 33 31 29
5 -9 -50 -36 -53 -73 -91 -106 -109 -30 -17 -37 -16 -18 3 9 8 16 21 16 27 0
7 -4 6 -10 -3 -5 -8 -12 -11 -15 -8 -4 4 0 16 8 28 10 15 16 18 19 8 3 -8 12
0 22 20 21 40 10 41 -39 2 -40 -32 -56 -34 -63 -9 -3 11 -2 12 6 0 6 -8 12 -9
16 -3 6 11 -4 15 -63 27 -19 4 -41 14 -49 22 -12 12 -18 12 -39 -2 -14 -9 -32
-14 -40 -10 -9 3 -24 -3 -35 -15 -20 -21 -48 -27 -48 -10 0 12 68 75 84 76 6
1 16 2 22 3 6 0 24 13 39 27 23 21 25 28 14 35 -11 8 -6 17 26 44 46 40 82 49
47 12z m425 -34 c-9 -21 -13 -23 -15 -9 -5 24 6 49 18 41 6 -3 5 -16 -3 -32z
m-1487 -38 c0 -2 -10 -9 -22 -15 -22 -11 -22 -10 -4 4 21 17 26 19 26 11z
m157 -67 c-3 -8 -6 -5 -6 6 -1 11 2 17 5 13 3 -3 4 -12 1 -19z m0 -60 c-3 -8
-6 -5 -6 6 -1 11 2 17 5 13 3 -3 4 -12 1 -19z m-10 -70 c-3 -8 -6 -5 -6 6 -1
11 2 17 5 13 3 -3 4 -12 1 -19z m911 -122 c-18 -24 -40 -54 -48 -66 -63 -94
-100 -130 -100 -97 0 18 86 128 94 120 3 -4 6 1 6 9 0 14 62 78 76 78 3 0 -10
-20 -28 -44z m-114 -43 c-11 -15 -22 -35 -26 -43 -5 -12 -7 -11 -7 3 -1 21 38
81 46 73 3 -3 -3 -18 -13 -33z m-687 -40 c-3 -10 -5 -4 -5 12 0 17 2 24 5 18
2 -7 2 -21 0 -30z m1183 -233 c0 -5 -5 -10 -11 -10 -5 0 -7 5 -4 10 3 6 8 10
11 10 2 0 4 -4 4 -10z m-36 -34 c-3 -9 -10 -16 -15 -16 -4 0 -20 -11 -35 -25
-15 -14 -29 -23 -32 -20 -3 2 15 23 39 44 45 42 54 45 43 17z m323 -8 c-3 -8
-6 -5 -6 6 -1 11 2 17 5 13 3 -3 4 -12 1 -19z m-282 -8 c-11 -18 -106 -90
-118 -90 -6 0 4 11 21 24 18 13 43 35 57 50 23 25 53 37 40 16z m292 -57 c-3
-10 -5 -2 -5 17 0 19 2 27 5 18 2 -10 2 -26 0 -35z m-127 12 c-7 -8 -17 -15
-23 -15 -5 0 -2 9 8 20 21 23 35 19 15 -5z m147 -27 c-3 -8 -6 -5 -6 6 -1 11
2 17 5 13 3 -3 4 -12 1 -19z m-184 -5 c-7 -2 -13 -12 -13 -22 0 -19 -18 -41
-34 -41 -5 0 -2 8 6 18 8 9 18 25 21 35 4 9 12 17 19 16 10 0 10 -2 1 -6z
m-530 -70 c-43 -69 -133 -181 -133 -167 0 4 9 22 21 40 11 19 16 34 10 34 -5
0 -12 -4 -16 -10 -9 -14 -68 -55 -64 -43 7 18 129 146 135 141 3 -3 -9 -20
-27 -37 -17 -18 -29 -35 -25 -38 3 -3 29 19 58 50 29 32 54 57 55 57 2 0 -4
-12 -14 -27z m227 -136 c0 -2 -9 -12 -20 -22 -24 -21 -27 -14 -4 9 15 15 24
20 24 13z m527 -129 c-3 -7 -5 -2 -5 12 0 14 2 19 5 13 2 -7 2 -19 0 -25z
m-266 -212 c-6 -14 -8 -31 -6 -38 8 -21 -9 -38 -33 -31 -29 7 -28 12 10 61 35
46 44 48 29 8z m229 -58 c0 -16 -3 -19 -11 -11 -6 6 -8 16 -5 22 11 17 16 13
16 -11z m-20 -48 c0 -5 -4 -10 -10 -10 -5 0 -10 5 -10 10 0 6 5 10 10 10 6 0
10 -4 10 -10z m-484 -112 c-8 -24 -15 -34 -16 -23 -1 20 -1 20 -15 1 -19 -24
-20 -6 -3 40 11 30 39 50 46 33 2 -4 -4 -27 -12 -51z m119 -58 c-16 -16 -31
-28 -34 -25 -2 3 8 19 24 35 16 16 31 28 34 25 2 -3 -8 -19 -24 -35z m-1594
-95 c102 13 339 17 339 6 0 -6 21 -11 47 -11 37 0 61 -9 117 -42 39 -24 80
-51 90 -60 11 -10 30 -18 43 -18 20 0 23 -5 23 -41 0 -24 4 -38 10 -34 15 9
12 -4 -4 -21 -8 -8 -31 -14 -50 -14 -20 0 -36 -4 -36 -10 0 -5 -19 -11 -42
-12 l-43 -1 43 -4 c23 -2 42 -8 42 -14 0 -10 -118 -16 -239 -11 -43 1 -78 -2
-81 -8 -4 -6 -17 0 -34 15 -30 28 -46 32 -46 11 0 -9 -32 -17 -120 -26 -66 -7
-120 -17 -120 -21 0 -5 -4 -9 -10 -9 -12 0 -9 22 5 32 6 4 -9 8 -32 8 -33 0
-43 4 -43 16 0 15 -16 16 -155 12 -86 -3 -158 -2 -160 2 -3 5 -19 11 -35 15
-17 4 -30 10 -30 13 1 19 39 51 73 62 20 6 37 16 37 21 0 12 65 43 122 59 26
7 49 18 52 26 3 8 14 14 25 14 11 0 23 5 26 10 3 6 15 10 26 10 10 0 19 5 19
10 0 6 10 10 23 10 12 0 29 4 37 10 9 6 17 5 21 -2 4 -6 26 -8 60 -3z m1699
-218 c0 -7 -11 -14 -25 -15 -16 -1 -25 3 -25 13 0 9 10 15 25 15 14 0 25 -6
25 -13z m-1790 -1084 c47 -15 77 -29 66 -31 -18 -4 -216 56 -216 66 0 7 58 -6
150 -35z m1570 -425 c0 -18 -2 -20 -9 -8 -6 8 -7 18 -5 22 9 14 14 9 14 -14z" />
        <path d="M3197 4393 c-4 -3 -7 -11 -7 -17 0 -6 5 -5 12 2 6 6 9 14 7 17 -3 3
-9 2 -12 -2z" />
        <path d="M1641 2230 c-9 -5 -4 -7 13 -7 29 0 32 2 13 10 -8 3 -20 2 -26 -3z" />
        <path d="M3081 4784 c0 -11 3 -14 6 -6 3 7 2 16 -1 19 -3 4 -6 -2 -5 -13z" />
        <path d="M3428 4623 c6 -2 18 -2 25 0 6 3 1 5 -13 5 -14 0 -19 -2 -12 -5z" />
        <path d="M2152 4280 c0 -14 2 -19 5 -12 2 6 2 18 0 25 -3 6 -5 1 -5 -13z" />
        <path d="M2235 4180 c3 -5 8 -10 11 -10 2 0 4 5 4 10 0 6 -5 10 -11 10 -5 0
-7 -4 -4 -10z" />
        <path d="M2161 4134 c0 -11 3 -14 6 -6 3 7 2 16 -1 19 -3 4 -6 -2 -5 -13z" />
        <path d="M2336 3919 c-3 -34 -5 -107 -4 -163 1 -89 2 -82 9 59 4 88 6 161 5
163 -2 1 -6 -25 -10 -59z" />
        <path d="M2304 3685 c0 -60 1 -84 3 -52 2 32 2 81 0 110 -2 29 -3 3 -3 -58z" />
        <path d="M2238 3570 c-2 -83 0 -150 5 -150 4 0 7 68 7 150 0 83 -2 150 -4 150
-3 0 -6 -68 -8 -150z" />
        <path d="M1874 3603 c-13 -30 -29 -51 -34 -48 -6 3 -10 -1 -10 -10 0 -9 -5
-13 -10 -10 -6 4 -8 11 -5 16 4 5 -1 9 -9 9 -21 0 -21 -46 0 -119 21 -73 34
-99 51 -105 11 -4 11 -1 3 15 -6 11 -9 28 -7 37 3 12 5 10 6 -6 1 -32 21 -17
22 16 0 15 3 21 6 13 5 -11 7 -11 14 0 7 12 9 11 9 -1 0 -13 1 -13 10 0 6 10
10 11 10 3 0 -7 9 -13 20 -13 15 0 20 -7 20 -28 0 -16 3 -32 8 -36 4 -4 12
-24 18 -44 9 -33 10 -29 6 34 -4 65 -3 72 18 87 18 13 22 23 18 56 -4 42 10
57 19 21 3 -11 9 -20 14 -20 12 0 11 42 -2 94 -14 56 -48 81 -118 88 l-53 5
-24 -54z" />
        <path d="M2493 3615 c0 -22 2 -30 4 -17 2 12 2 30 0 40 -3 9 -5 -1 -4 -23z" />
        <path d="M1670 3591 c0 -31 29 -143 41 -155 5 -6 9 2 9 21 0 37 -49 169 -50
134z" />
        <path d="M2322 3560 c0 -14 2 -19 5 -12 2 6 2 18 0 25 -3 6 -5 1 -5 -13z" />
        <path d="M1727 3543 c-10 -16 12 -53 28 -47 11 5 15 -1 15 -22 0 -16 5 -36 11
-44 8 -12 10 -10 5 10 -2 14 -8 43 -12 65 -6 32 -9 36 -15 20 -6 -16 -8 -17
-8 -3 -1 19 -17 33 -24 21z" />
        <path d="M2116 3509 c-3 -17 -5 -48 -5 -68 1 -24 4 -15 10 29 9 68 6 92 -5 39z" />
        <path d="M2430 3471 c0 -22 5 -43 10 -46 6 -4 10 10 10 34 0 22 -4 43 -10 46
-6 4 -10 -10 -10 -34z" />
        <path d="M2316 3458 c-3 -13 -5 -39 -5 -58 1 -27 3 -22 9 20 9 58 7 77 -4 38z" />
        <path d="M1513 3440 c3 -14 8 -43 11 -65 5 -31 4 -35 -3 -17 -18 39 -29 24
-19 -25 6 -27 11 -58 13 -69 6 -42 51 -101 78 -101 13 0 16 6 11 21 -14 46
-23 64 -34 71 -8 5 -8 10 0 20 12 15 -14 103 -47 163 -15 27 -15 27 -10 2z
m46 -140 c0 -10 -3 -8 -9 5 -12 27 -12 43 0 25 5 -8 9 -22 9 -30z" />
        <path d="M2747 3302 c-10 -10 -17 -29 -17 -41 0 -12 -4 -19 -10 -16 -6 4 -7
-1 -3 -11 6 -16 8 -15 22 6 40 60 45 103 8 62z" />
        <path d="M2960 3310 c0 -5 7 -10 15 -10 8 0 15 5 15 10 0 6 -7 10 -15 10 -8 0
-15 -4 -15 -10z" />
        <path d="M1911 3294 c0 -11 3 -14 6 -6 3 7 2 16 -1 19 -3 4 -6 -2 -5 -13z" />
        <path d="M2945 3277 c-36 -43 -83 -117 -75 -117 6 0 10 3 10 8 0 4 18 27 40
52 22 25 40 51 40 58 0 15 -2 15 -15 -1z" />
        <path d="M2633 3255 c-3 -9 -3 -18 -1 -21 3 -3 8 4 11 16 6 23 -1 27 -10 5z" />
        <path d="M1480 3251 c0 -6 4 -13 10 -16 6 -3 7 1 4 9 -7 18 -14 21 -14 7z" />
        <path d="M1476 3195 c7 -33 24 -58 24 -34 -1 7 -7 25 -15 39 l-15 25 6 -30z" />
        <path d="M2230 3210 c1 -3 11 -25 24 -49 l23 -43 26 45 c15 25 27 47 27 49 0
2 -22 3 -50 3 -27 0 -50 -2 -50 -5z" />
        <path d="M2740 3190 c0 -5 5 -10 10 -10 6 0 10 5 10 10 0 6 -4 10 -10 10 -5 0
-10 -4 -10 -10z" />
        <path d="M1400 3155 c0 -12 35 -75 42 -75 12 0 10 5 -13 44 -19 33 -29 43 -29
31z" />
        <path d="M1637 3080 c3 -11 9 -17 15 -14 5 3 4 12 -3 20 -16 19 -18 18 -12 -6z" />
        <path d="M1436 3025 c3 -11 9 -28 11 -37 6 -22 19 -23 27 -3 3 9 0 15 -8 15
-7 0 -18 10 -25 23 -9 17 -10 17 -5 2z" />
        <path d="M2173 2863 c15 -2 37 -2 50 0 12 2 0 4 -28 4 -27 0 -38 -2 -22 -4z" />
        <path d="M2118 2853 c7 -3 16 -2 19 1 4 3 -2 6 -13 5 -11 0 -14 -3 -6 -6z" />
        <path d="M2520 2850 c0 -5 5 -10 10 -10 6 0 10 5 10 10 0 6 -4 10 -10 10 -5 0
-10 -4 -10 -10z" />
        <path d="M2418 2843 c12 -2 30 -2 40 0 9 3 -1 5 -23 4 -22 0 -30 -2 -17 -4z" />
        <path d="M2008 2833 c7 -3 16 -2 19 1 4 3 -2 6 -13 5 -11 0 -14 -3 -6 -6z" />
        <path d="M3992 2800 c0 -14 2 -19 5 -12 2 6 2 18 0 25 -3 6 -5 1 -5 -13z" />
        <path d="M3960 2780 c0 -5 5 -10 11 -10 5 0 7 5 4 10 -3 6 -8 10 -11 10 -2 0
-4 -4 -4 -10z" />
        <path d="M3839 2665 c-6 -40 -4 -53 7 -43 3 3 4 23 2 44 l-3 39 -6 -40z" />
        <path d="M3961 2684 c0 -11 3 -14 6 -6 3 7 2 16 -1 19 -3 4 -6 -2 -5 -13z" />
        <path d="M1470 2603 c0 -13 5 -23 10 -23 13 0 13 11 0 30 -8 12 -10 11 -10 -7z" />
        <path d="M3931 2508 c0 -28 2 -30 9 -13 12 28 12 45 0 45 -5 0 -10 -15 -9 -32z" />
        <path d="M3916 2394 c-3 -26 -6 -59 -5 -73 1 -23 2 -21 10 9 14 52 19 110 10
110 -5 0 -11 -21 -15 -46z" />
        <path d="M3780 2268 c0 -36 4 -35 14 5 4 16 2 27 -4 27 -5 0 -10 -14 -10 -32z" />
        <path d="M3832 2022 c-7 -15 -8 -30 -3 -35 5 -5 12 4 16 23 9 40 3 46 -13 12z" />
        <path d="M3597 1833 c-11 -10 -8 -43 3 -43 6 0 10 11 10 25 0 26 -2 29 -13 18z" />
        <path d="M3540 1771 c-12 -24 -13 -31 -1 -31 5 0 11 11 13 25 6 30 2 32 -12 6z" />
        <path d="M3568 1735 c-21 -27 -23 -48 -6 -43 10 4 32 58 25 64 -1 1 -10 -8
-19 -21z" />
        <path d="M3520 1675 c0 -8 5 -15 10 -15 6 0 10 7 10 15 0 8 -4 15 -10 15 -5 0
-10 -7 -10 -15z" />
        <path d="M3425 1671 c-3 -5 -1 -12 5 -16 5 -3 10 1 10 9 0 18 -6 21 -15 7z" />
        <path d="M3726 1654 c-4 -9 -4 -19 -1 -22 2 -3 7 3 11 12 4 9 4 19 1 22 -2 3
-7 -3 -11 -12z" />
        <path d="M3460 1650 c0 -5 4 -10 9 -10 6 0 13 5 16 10 3 6 -1 10 -9 10 -9 0
-16 -4 -16 -10z" />
        <path d="M3440 1610 c0 -11 -6 -20 -12 -20 -9 0 -8 -3 2 -10 9 -6 17 -5 22 3
11 17 10 47 -2 47 -5 0 -10 -9 -10 -20z" />
        <path d="M3330 1585 c0 -9 6 -12 15 -9 8 4 15 7 15 9 0 2 -7 5 -15 9 -9 3 -15
0 -15 -9z" />
        <path d="M3440 1494 c0 -14 3 -14 15 -4 8 7 15 14 15 16 0 2 -7 4 -15 4 -8 0
-15 -7 -15 -16z" />
        <path d="M3647 1373 c-2 -10 -8 -27 -12 -38 -7 -18 -6 -18 8 -5 18 18 32 60
19 60 -5 0 -12 -8 -15 -17z" />
        <path d="M3400 1324 c0 -8 5 -12 10 -9 6 3 10 10 10 16 0 5 -4 9 -10 9 -5 0
-10 -7 -10 -16z" />
        <path d="M3380 1049 c0 -5 5 -7 10 -4 6 3 10 8 10 11 0 2 -4 4 -10 4 -5 0 -10
-5 -10 -11z" />
        <path d="M3491 604 c0 -11 3 -14 6 -6 3 7 2 16 -1 19 -3 4 -6 -2 -5 -13z" />
        <path d="M1981 453 c1 -57 16 -145 18 -108 1 23 3 27 11 15 8 -12 10 -11 10 8
0 12 -6 22 -12 22 -7 0 2 10 19 23 29 19 49 48 23 32 -5 -3 -10 1 -10 10 0 12
-36 35 -56 35 -2 0 -4 -17 -3 -37z" />
        <path d="M2058 413 c6 -2 18 -2 25 0 6 3 1 5 -13 5 -14 0 -19 -2 -12 -5z" />
        <path d="M2287 383 c-9 -16 -87 -354 -87 -375 0 -5 15 -8 34 -8 38 0 33 -10
71 137 13 51 36 125 50 166 14 40 25 77 25 80 0 10 -88 9 -93 0z" />
    </g>
</svg>
