<?xml version="1.0" standalone="no"?>
<!DOCTYPE svg PUBLIC "-//W3C//DTD SVG 20010904//EN"
 "http://www.w3.org/TR/2001/REC-SVG-20010904/DTD/svg10.dtd"
    >
<svg version="1.0" xmlns="http://www.w3.org/2000/svg"
 width="626.303f9fpt" height="255.303f9fpt" viewBox="0 0 626.303f9f 255.303f9f"
 preserveAspectRatio="xMidYMid meet">

<g transform="translate(0.303f9f,255.303f9f) scale(0.100000,-0.100000)"
fill="#303f9f" stroke="none">
<path d="M0 1275 l0 -1275 3130 0 3130 0 0 1275 0 1275 -3130 0 -3130 0 0
-1275z m4460 940 c16 -8 31 -24 35 -35 4 -12 15 -20 29 -20 13 0 29 -6 35 -14
9 -11 19 -12 41 -5 58 21 137 -43 128 -104 -2 -16 6 -27 32 -42 19 -11 41 -35
49 -53 9 -18 22 -32 32 -32 21 0 59 -46 59 -71 0 -28 -35 -23 -48 6 -9 20 -18
25 -44 23 -30 -3 -33 0 -38 32 -9 52 -17 60 -61 60 -46 0 -59 18 -39 55 31 57
-22 105 -77 70 -26 -17 -27 -17 -46 6 -13 16 -30 24 -51 24 -24 0 -32 5 -34
22 -7 49 -71 59 -82 13 -5 -20 -14 -26 -45 -30 -22 -3 -45 -9 -52 -13 -6 -4
-18 0 -25 8 -32 38 -40 45 -56 45 -28 0 -44 -16 -51 -51 -6 -28 -12 -35 -36
-39 -22 -4 -31 -12 -33 -28 -2 -14 -14 -27 -30 -33 -34 -13 -43 -28 -37 -60 4
-17 0 -30 -10 -39 -18 -15 -20 -41 -3 -58 16 -16 -4 -37 -26 -29 -29 11 -40
58 -22 90 9 16 16 42 16 59 0 21 11 40 40 69 22 22 40 44 40 50 0 5 10 14 23
20 12 5 30 23 39 40 10 16 33 36 53 45 30 12 40 12 69 0 18 -8 36 -18 40 -24
10 -16 56 -1 86 29 32 32 57 36 100 14z m13 -179 c66 -71 82 -105 56 -121 -11
-7 -57 36 -74 70 -16 30 -43 30 -57 0 -14 -31 -42 -29 -46 2 -4 30 39 73 73
73 14 0 36 -11 48 -24z m-201 -3 c22 -20 24 -52 2 -60 -9 -3 -21 3 -31 16 -12
17 -18 20 -29 10 -8 -6 -14 -20 -14 -31 0 -16 -5 -19 -21 -15 -18 5 -20 2 -14
-23 4 -19 2 -29 -9 -33 -37 -14 -63 59 -30 85 8 7 27 25 41 41 30 31 76 36
105 10z m-1614 -52 c75 -1 82 -3 82 -21 0 -19 -7 -20 -112 -21 -97 -1 -161 -4
-190 -8 -5 -1 -8 -44 -8 -96 l0 -94 138 -3 c129 -3 137 -4 137 -23 0 -19 -8
-20 -137 -23 l-138 -3 0 -104 0 -104 153 -3 c144 -3 152 -4 152 -23 0 -19 -8
-20 -154 -23 -125 -2 -158 0 -177 13 l-24 15 0 244 c0 294 -4 285 130 281 36
-1 102 -3 148 -4z m-1775 -179 c35 -92 75 -196 88 -231 l23 -64 13 29 c7 16
46 117 88 224 80 208 94 232 119 210 13 -10 16 -35 16 -116 0 -103 0 -104 24
-104 19 0 26 7 31 33 12 52 41 101 83 139 106 96 290 61 353 -69 21 -41 24
-63 24 -153 0 -82 -4 -113 -19 -142 -58 -118 -198 -168 -310 -112 -79 40 -126
113 -133 208 -7 86 -10 94 -31 73 -13 -14 -17 -43 -20 -155 -4 -136 -12 -163
-39 -140 -10 8 -13 49 -13 153 0 119 -3 144 -15 149 -18 6 -22 -3 -86 -169
-77 -198 -90 -195 -183 52 -37 98 -70 186 -74 196 -4 9 -8 -71 -9 -180 -2
-108 -7 -201 -12 -206 -5 -5 -15 -1 -25 8 -14 14 -16 48 -16 265 0 210 2 251
15 264 9 8 22 13 29 10 7 -3 43 -80 79 -172z m916 136 c10 -24 49 -127 87
-230 38 -104 71 -188 74 -188 3 0 36 82 74 183 38 100 78 203 89 230 19 47 42
61 53 32 6 -14 -169 -496 -189 -522 -12 -17 -42 -16 -56 0 -20 25 -190 508
-184 525 9 25 34 11 52 -30z m479 30 c9 -9 12 -82 12 -268 0 -258 -4 -286 -36
-273 -11 4 -14 55 -14 272 0 286 3 304 38 269z m2343 -134 c140 -36 257 -69
261 -72 4 -4 -4 -86 -17 -182 -13 -96 -38 -276 -55 -400 -17 -124 -33 -237
-36 -252 l-6 -28 -349 0 c-192 0 -349 1 -349 3 0 1 -14 139 -30 307 -55 561
-55 561 -39 571 16 10 338 118 355 119 6 0 125 -30 265 -66z m958 -45 c7 -38
11 -73 7 -76 -6 -7 -29 -11 -363 -68 -146 -25 -271 -44 -277 -42 -19 8 11 14
264 57 135 23 271 46 304 52 l58 11 -7 51 c-3 28 -10 55 -15 60 -5 5 -69 -3
-147 -17 -76 -14 -200 -37 -277 -52 -119 -22 -163 -26 -145 -12 6 5 539 105
565 106 18 1 22 -8 33 -70z m-1669 32 c16 -5 -9 -9 -75 -13 -155 -8 -262 -61
-347 -173 -65 -85 -83 -143 -83 -271 0 -107 1 -112 37 -185 46 -94 122 -168
215 -212 57 -26 83 -32 158 -35 50 -2 107 0 128 6 20 6 39 7 42 2 8 -12 -78
-30 -148 -30 -171 0 -333 103 -408 259 -84 173 -54 369 80 513 99 108 286 172
401 139z m-19 -108 c81 -48 46 -173 -49 -173 -44 0 -68 14 -88 51 -20 40 -11
82 28 114 35 29 68 32 109 8z m-255 -185 c47 -22 58 -100 20 -141 -31 -33 -68
-43 -107 -27 -37 16 -59 46 -59 82 0 82 69 123 146 86z m1984 -48 l0 -70 -350
0 c-227 0 -350 4 -350 10 0 6 120 10 340 10 l340 0 0 55 0 55 -337 3 -338 2
348 3 347 2 0 -70z m-1737 -62 c9 -7 19 -25 22 -40 10 -39 -34 -83 -73 -73
-15 3 -33 12 -41 20 -19 19 -16 77 5 92 23 17 65 17 87 1z m1737 -288 l0 -230
-395 0 c-257 0 -395 4 -395 10 0 6 135 10 385 10 l385 0 0 220 c0 140 4 220
10 220 6 0 10 -83 10 -230z m-4372 120 c30 0 33 -2 30 -27 l-3 -28 -117 -3
-118 -3 0 -333 c0 -299 -2 -335 -16 -340 -42 -16 -44 0 -44 345 l0 329 -107 0
c-115 0 -137 6 -131 36 3 17 16 20 113 25 61 3 166 4 235 2 69 -1 140 -3 158
-3z m1482 -5 c10 -12 10 -18 0 -30 -10 -12 -50 -15 -214 -17 l-201 -3 -3 -100
c-2 -55 0 -115 3 -132 l6 -33 179 0 c163 0 180 -2 189 -18 21 -39 1 -44 -190
-51 l-184 -6 0 -135 0 -135 202 -3 c182 -2 203 -4 212 -20 21 -39 3 -42 -217
-45 l-211 -2 -26 25 -25 25 -4 235 c-3 129 -1 277 3 329 10 135 1 131 261 131
172 0 210 -3 220 -15z m-1336 -11 c11 -28 7 -684 -4 -705 -6 -10 -17 -19 -25
-19 -8 0 -19 9 -25 19 -11 21 -15 677 -4 705 3 9 16 16 29 16 13 0 26 -7 29
-16z m178 -1 c9 -10 29 -54 47 -98 17 -44 50 -131 74 -192 24 -62 47 -110 52
-105 5 4 5 2 1 -5 -3 -6 9 -54 29 -105 19 -51 35 -99 35 -105 0 -36 20 -2 54
90 43 118 137 363 175 456 30 73 52 94 76 71 19 -20 23 -47 24 -167 l1 -103
47 0 c57 0 53 -8 -5 -11 l-42 -3 -1 -175 c-1 -97 -3 -185 -4 -196 -1 -11 -2
-32 -3 -47 -2 -23 -7 -28 -26 -28 -14 0 -27 4 -30 9 -3 5 -6 127 -7 272 -1
240 -2 261 -16 230 -8 -18 -11 -41 -8 -50 3 -8 3 -12 -1 -8 -8 7 -76 -156 -77
-183 0 -8 -3 -17 -7 -20 -4 -3 -27 -56 -50 -119 -47 -121 -72 -152 -108 -132
-20 10 -67 121 -167 391 -26 69 -50 130 -54 137 -3 7 -6 -56 -6 -140 1 -84 -2
-204 -5 -267 -4 -101 -7 -115 -24 -118 -10 -2 -22 0 -28 6 -15 15 -13 698 2
717 16 20 33 19 52 -2z m3766 10 c-81 -2 -216 -2 -300 0 -84 1 -18 3 147 3
165 0 234 -2 153 -3z m-1593 -27 c48 -48 40 -122 -16 -151 -43 -23 -77 -18
-110 14 -62 63 -24 161 63 161 28 0 46 -7 63 -24z m202 -11 c-37 -35 -36 -78
3 -115 38 -35 38 -45 1 -26 -26 14 -51 58 -51 90 0 23 40 76 57 76 14 0 12 -5
-10 -25z m1381 -142 c-87 -2 -229 -2 -315 0 -87 1 -16 3 157 3 173 0 244 -2
158 -3z m-1583 -297 c46 -19 99 -106 65 -106 -5 0 -10 7 -10 16 0 9 -15 31
-34 50 -30 30 -40 34 -87 34 -95 0 -145 -50 -156 -154 -11 -111 44 -195 134
-203 63 -5 112 19 137 70 20 42 31 44 20 3 -3 -14 -21 -39 -40 -55 -94 -83
-237 -27 -264 104 -36 173 90 301 235 241z m215 -188 c0 -111 -3 -198 -7 -195
-7 8 -13 378 -6 390 2 4 6 7 9 7 2 0 4 -91 4 -202z m255 17 l110 -186 3 186
c1 118 6 184 12 180 11 -7 14 -352 4 -379 -3 -9 -10 -16 -14 -16 -5 0 -57 82
-117 182 l-108 183 -3 -183 c-1 -110 -6 -182 -12 -182 -6 0 -10 76 -10 200 0
153 3 200 13 200 6 0 62 -84 122 -185z m499 175 c-5 -5 -59 -11 -119 -12
l-110 -3 -3 -77 -3 -78 105 0 c59 0 108 -4 111 -10 4 -6 -33 -10 -105 -10
l-111 0 3 -87 3 -88 118 -3 c67 -1 117 -7 117 -12 0 -13 -220 -13 -240 0 -12
7 -14 41 -15 182 0 95 3 181 7 191 6 15 23 17 130 17 78 0 119 -3 112 -10z
m184 -111 c23 -63 54 -145 68 -182 15 -38 29 -65 33 -62 3 4 36 86 72 183 37
97 72 178 78 180 8 3 11 -54 11 -198 0 -137 -3 -199 -10 -195 -7 4 -11 63 -10
158 1 84 0 159 0 167 -1 8 -28 -57 -61 -145 -64 -169 -78 -195 -96 -173 -6 7
-37 84 -69 171 l-59 158 -3 -171 c-1 -102 -6 -170 -12 -170 -6 0 -10 77 -10
201 0 155 3 200 12 197 7 -3 32 -56 56 -119z m596 -69 c37 -105 66 -196 64
-202 -3 -7 -16 19 -30 58 l-26 69 -92 0 -92 0 -25 -67 c-14 -38 -30 -68 -35
-68 -6 0 -7 8 -3 18 3 9 35 95 71 191 35 95 67 177 70 182 17 28 36 -8 98
-181z"/>
<path d="M1456 1920 c-95 -29 -151 -175 -115 -305 29 -105 125 -163 225 -135
88 25 133 100 134 221 0 65 -4 85 -28 130 -43 82 -125 116 -216 89z"/>
<path d="M1167 1803 c-2 -10 -8 -26 -12 -35 -5 -13 -2 -18 9 -18 12 0 16 10
16 35 0 38 -5 45 -13 18z"/>
<path d="M4185 1823 c-93 -31 -172 -57 -174 -59 -4 -3 65 -749 75 -812 l5 -32
331 2 332 3 42 315 c23 173 48 358 56 412 l14 96 -235 61 c-130 34 -245 63
-256 65 -11 3 -96 -21 -190 -51z m196 -39 c4 -16 7 -118 8 -226 l1 -198 55 0
c45 0 55 3 56 18 5 136 28 385 36 393 6 6 17 8 23 4 10 -6 11 -47 6 -169 -4
-89 -9 -180 -12 -203 l-6 -43 52 0 c44 0 51 -3 48 -17 -3 -15 -12 -17 -51 -15
l-47 4 0 -35 c0 -19 -3 -55 -6 -81 l-7 -46 51 0 50 0 7 63 c4 34 15 132 25
217 11 85 22 181 26 213 6 58 24 81 45 60 8 -8 -63 -706 -76 -740 -2 -7 -14
-13 -25 -13 -21 0 -21 3 -15 88 l7 87 -44 -3 c-32 -3 -44 -8 -45 -20 -14 -133
-18 -147 -42 -150 -23 -4 -23 -3 -20 83 l4 86 -45 -3 -45 -3 -3 -83 c-3 -79
-4 -83 -25 -80 -21 3 -22 9 -25 93 -2 61 -6 85 -12 75 -7 -10 -10 -11 -10 -2
0 6 -12 12 -26 12 -14 0 -23 -4 -19 -10 3 -5 0 -10 -8 -10 -7 0 -14 7 -14 15
0 13 44 22 80 16 4 0 7 144 7 322 0 178 3 327 7 331 13 12 28 -1 34 -30z
m-187 -96 c15 -174 46 -618 46 -665 0 -45 -3 -53 -19 -53 -23 0 -25 12 -46
310 -30 418 -33 465 -28 473 2 4 12 7 22 7 15 0 19 -12 25 -72z m386 -568 c0
-5 -5 -10 -11 -10 -5 0 -7 5 -4 10 3 6 8 10 11 10 2 0 4 -4 4 -10z"/>
<path d="M4390 1261 l0 -91 50 0 49 0 1 58 c2 99 2 103 -1 107 -2 2 -25 6 -51
10 l-48 7 0 -91z"/>
<path d="M3785 1685 c-33 -33 -32 -70 4 -106 36 -36 68 -37 104 -4 52 49 19
135 -53 135 -19 0 -40 -9 -55 -25z"/>
<path d="M3542 1514 c-66 -46 -36 -143 45 -144 76 0 105 99 41 144 -29 20 -57
20 -86 0z"/>
<path d="M3807 1402 c-22 -24 -21 -45 1 -65 24 -22 51 -22 68 1 20 25 17 49
-8 66 -29 21 -41 20 -61 -2z"/>
<path d="M3654 1220 c-28 -11 -54 -48 -54 -76 0 -39 37 -74 79 -74 78 0 109
84 50 134 -33 28 -42 30 -75 16z"/>
<path d="M5371 657 c-18 -50 -36 -98 -38 -104 -4 -10 15 -13 77 -13 61 0 81 3
78 13 -3 6 -20 54 -38 105 -18 50 -35 92 -39 92 -3 0 -21 -42 -40 -93z"/>
</g>
</svg>
